<svg xmlns="http://www.w3.org/2000/svg" viewBox="0 0 600 600" width="100%" height="100%">
  <defs>
    <pattern id="stripes" patternUnits="userSpaceOnUse" width="30" height="600">
      <rect width="15" height="600" fill="#5CBA32"/>
      <rect x="15" width="15" height="600" fill="#52A52F"/>
    </pattern>
  </defs>

  <rect width="600" height="600" fill="#5CBA32" />
  <rect width="600" height="600" fill="url(#stripes)" />

  <path d="M 17.16 237.16 A 400 400 0 0 1 582.84 237.16" fill="none" stroke="#F08B1D" stroke-width="6" />

  <line x1="300" y1="520" x2="17.16" y2="237.16" stroke="#FFFFFF" stroke-width="3.5" />
  <line x1="300" y1="520" x2="582.84" y2="237.16" stroke="#FFFFFF" stroke-width="3.5" />

  <path d="M 120 340 A 254.5 254.5 0 0 1 480 340 L 300 520 Z" fill="#F08B1D" />

  <path d="M 300 520 L 400 420 L 300 320 L 200 420 Z" fill="#5CBA32" />

  <circle cx="300" cy="520" r="45" fill="#F08B1D" />
  <circle cx="400" cy="420" r="26" fill="#F08B1D" />
  <circle cx="300" cy="320" r="26" fill="#F08B1D" />
  <circle cx="200" cy="420" r="26" fill="#F08B1D" />
  <circle cx="300" cy="420" r="32" fill="#F08B1D" />
  <rect x="292" y="417" width="16" height="6" fill="#FFFFFF" rx="1.5" />

  <path d="M 400 408 L 412 420 L 400 432 L 388 420 Z" fill="#FFFFFF" />
  <path d="M 300 308 L 312 320 L 300 332 L 288 320 Z" fill="#FFFFFF" />
  <path d="M 200 408 L 212 420 L 200 432 L 188 420 Z" fill="#FFFFFF" />

  <path d="M 292 514 L 308 514 L 308 522 L 300 530 L 292 522 Z" fill="#FFFFFF" />

  <rect x="272" y="504" width="14" height="28" fill="none" stroke="#FFFFFF" stroke-width="2.5" />
  <rect x="314" y="504" width="14" height="28" fill="none" stroke="#FFFFFF" stroke-width="2.5" />

  <path d="M 285 534 L 285 548 L 315 548 L 315 534" fill="none" stroke="#FFFFFF" stroke-width="2.5" />
</svg>
